<svg xmlns="http://www.w3.org/2000/svg" aria-hidden="true" style="position:absolute;width:0;height:0;overflow:hidden"><defs><symbol id="icon-antenna" viewBox="0 0 32 32"><path fill="#2e2f42" d="m30.773 22.098-8.443-8.505.937-4.615c.242.094.499.143.759.145h.032a2.16 2.16 0 1 0-2.029-1.42l-.005-.015-4.96.605L8.973.16A.53.53 0 0 0 8.597 0a.536.536 0 0 0-.373.155L6.711 1.659a.53.53 0 0 0 0 .754l.814.825C6.382 5.3 5.709 7.76 5.709 10.377c0 4.106 1.656 7.825 4.336 10.526l-.001-.001a.506.506 0 0 0 .146.098 2.986 2.986 0 0 0-.052.546v6.188h-6.4A2.669 2.669 0 0 0 1.071 30.4v1.067c0 .295.239.533.534.533h24.534a.535.535 0 0 0 .534-.534v-1.067a2.67 2.67 0 0 0-2.667-2.666h-6.4v-2.742a14.784 14.784 0 0 0 10.166-1.502l-.077.039.819.823a.534.534 0 0 0 .377.16.532.532 0 0 0 .373-.155l1.512-1.505a.535.535 0 0 0 0-.754zM23.28 6.233a1.067 1.067 0 1 1 .752 1.822h-.003a1.066 1.066 0 0 1-.746-1.822h-.002zm-1.256 3.505-.599 2.945-1.175-1.182 1.774-1.764zm-.605-.902-1.92 1.909-1.485-1.493 3.405-.415zM24.004 28.8a1.6 1.6 0 0 1 1.6 1.6v.534H2.138V30.4a1.6 1.6 0 0 1 1.6-1.6h20.267zm-7.466-2.134v1.067h-5.334v-1.067h5.334zM11.204 25.6v-4.053c0-1.294 1.197-2.346 2.666-2.346s2.667 1.053 2.667 2.346V25.6h-5.334zm6.4-1.696v-2.357c0-1.882-1.675-3.413-3.733-3.413h-.059c-1.353 0-2.54.707-3.213 1.771l-.009.016a13.816 13.816 0 0 1-3.811-9.549c0-2.314.567-4.496 1.569-6.414l-.036.077 18.602 18.709c-1.823.947-3.98 1.502-6.266 1.502-1.079 0-2.128-.124-3.136-.357l.093.018zm11.289-.683L7.836 2.041l.755-.752 7.935 7.98c.003 0 .006.007.009.009l13.114 13.191-.757.752z" style="fill:var(--color1, #2e2f42)"/><path fill="#4d5ae5" d="M13.876 20.267h-.007a1.6 1.6 0 0 0-.003 3.2h.007a1.6 1.6 0 0 0 .003-3.2zm.373 1.978a.534.534 0 0 1-.91-.379v-.002a.533.533 0 0 1 .53-.53.535.535 0 0 1 .374.912h.005z" style="fill:var(--color2, #4d5ae5)"/></symbol><symbol id="icon-astronaut" viewBox="0 0 32 32"><path fill="#4d5ae5" d="M31.974 4.524a.535.535 0 0 0-.427-.362h-.003l-1.911-.278-.855-1.731c-.179-.365-.776-.365-.956 0l-.855 1.731-1.91.278a.534.534 0 0 0-.296.909l1.383 1.348-.326 1.903a.533.533 0 0 0 .774.561l1.709-.899 1.709.899a.534.534 0 0 0 .773-.565v.003l-.326-1.903L31.84 5.07a.535.535 0 0 0 .134-.55l.001.004zm-2.463 1.327a.534.534 0 0 0-.153.472l.191 1.114-1-.526a.524.524 0 0 0-.499.001l.003-.001-1 .526.191-1.114a.53.53 0 0 0-.153-.472l-.81-.79 1.119-.162a.533.533 0 0 0 .401-.292l.5-1.013.501 1.013a.535.535 0 0 0 .402.292l1.119.162-.809.79zm-3.377 14.671h-1.067v1.067h1.067v-1.067zm0 2.133h-1.067v1.067h1.067v-1.067z" style="fill:var(--color2, #4d5ae5)"/><path fill="#4d5ae5" d="M27.2 21.589h-1.067v1.067H27.2v-1.067zm-2.133 0H24v1.067h1.067v-1.067zm-2.667 4.8h-1.067v1.067H22.4v-1.067zm0 2.134h-1.067v1.067H22.4v-1.067zm1.067-1.067H22.4v1.067h1.067v-1.067zM21.334 27.456h-1.067v1.067h1.067v-1.067zM16 24.256h-1.066v1.067H16v-1.067zm0 2.133h-1.066v1.067H16v-1.067zm1.067-1.066H16v1.067h1.067v-1.067zm-2.133 0h-1.067v1.067h1.067v-1.067zM5.867 6.122H4.801v1.066h1.066V6.122zm0 2.133H4.801v1.067h1.066V8.256zm1.066-1.066H5.867v1.067h1.066V7.189zm-2.133 0H3.733v1.067H4.8V7.189z" style="fill:var(--color2, #4d5ae5)"/><path fill="#2e2f42" d="M24.715 14.159a1.778 1.778 0 0 0-1.179-.704l-.009-.001a1.764 1.764 0 0 0-1.344.356l.004-.003-1.252.96-1.898 1.417-1.358-.541c2.421-1.086 4.114-3.508 4.114-6.32 0-3.823-3.122-6.933-6.961-6.933S7.87 5.5 7.87 9.323a6.86 6.86 0 0 0 1.12 3.758l-2.769-.024c-.008 0-.015.005-.024.005a.52.52 0 0 0-.155.03c-.013.005-.026.008-.038.014-.006.002-.013.003-.019.007L2.751 14.71l-1.893.911a.429.429 0 0 0-.064.036l.001-.001a1.78 1.78 0 0 0-.593 2.304l-.005-.01c.22.429.595.745 1.056.89a1.772 1.772 0 0 0 1.388-.133l-.009.005 1.388-.738 2.264-1.169 1.357-.008-5.442 5.415-.002.002-1.339 1.333c-.303.299-.49.714-.49 1.173v.005a1.668 1.668 0 0 0 1.669 1.663 1.67 1.67 0 0 0 1.18-.485l1.314-1.308 1.74-1.3.901.897L4.07 27.28c-.303.299-.49.714-.49 1.173v.005a1.669 1.669 0 0 0 1.67 1.664c.428 0 .855-.162 1.18-.485l3.482-3.466.001-.002 1.01-1-.004-.003c.007-.006.015-.009.022-.015l5.166-5.658 3.471.494a.522.522 0 0 0 .266-.035l-.004.001c.017-.006.033-.015.05-.023.019-.009.039-.015.057-.027l3.213-2.134c.012-.008.018-.02.029-.029.012-.01.029-.014.04-.025l1.272-1.192a1.777 1.777 0 0 0 .209-2.366l.003.005zM2.13 17.77a.714.714 0 0 1-.558.052.717.717 0 0 1-.215-1.258l.002-.001 1.314-.632.316.925.133.388-.993.527zm3.498-1.827-1.548.8-.255-.747-.183-.537 2.026-1-.04 1.483zm15.099-6.621a5.79 5.79 0 0 1-.599 2.559l-4.181-1.899a1.86 1.86 0 0 0-.782-1.384l-.006-.004 1.464-4.86c2.378.755 4.105 2.974 4.105 5.587zm-11.789 0c0-3.235 2.644-5.867 5.894-5.867.253 0 .5.022.745.053l-1.432 4.753c-.019 0-.037-.005-.057-.005h-.001a1.872 1.872 0 0 0-1.872 1.866 1.873 1.873 0 0 0 1.872 1.867h.001c.694 0 1.294-.383 1.618-.944l3.863 1.755a5.891 5.891 0 0 1-4.736 2.39c-3.25 0-5.895-2.633-5.895-5.867zm5.957.8c0 .441-.362.8-.806.8h-.002a.804.804 0 0 1-.804-.8c0-.441.361-.8.806-.8s.806.359.806.8zM2.465 25.146a.609.609 0 0 1-.855 0 .591.591 0 0 1 0-.844l.962-.959.851.848-.958.955zm3.213 3.734a.606.606 0 0 1-.855.001.591.591 0 0 1 0-.844l.963-.959.851.848-.96.955zm3.483-3.469-.002.001-1.765 1.76-.851-.848 1.763-1.756.002-.001c.04-.04.065-.088.09-.135.007-.014.02-.026.026-.04.017-.041.019-.085.025-.129.004-.024.014-.047.014-.073 0-.035-.012-.07-.02-.105-.007-.032-.007-.065-.018-.096a.511.511 0 0 0-.091-.137c-.01-.012-.014-.027-.025-.038h-.001l-.001-.002-1.607-1.6c-.017-.017-.039-.024-.058-.038a.491.491 0 0 0-.084-.056l-.003-.001a.477.477 0 0 0-.09-.032l-.003-.001a.502.502 0 0 0-.101-.02h-.022a.49.49 0 0 0-.077.006h.003a.59.59 0 0 0-.108.021l.004-.001a.502.502 0 0 0-.096.046l.002-.001c-.02.011-.043.015-.061.029l-1.774 1.324-.901-.897 2.399-2.386 4.36 4.289-.927.919zm6.818-7.017c-.015-.002-.03.004-.045.003l-.026-.001a.562.562 0 0 0-.092.008h.003a.5.5 0 0 0-.187.069l.002-.001a.554.554 0 0 0-.083.061c-.013.011-.028.017-.04.029l-4.698 5.146-4.328-4.257 2.833-2.818a.535.535 0 0 0-.378-.911h-.001l-2.219.013.027-1.607 3.104.027a6.928 6.928 0 0 0 4.978 2.101h.003c.438 0 .864-.045 1.279-.122.04.032.079.064.13.085l2.409.96.152.758.178.885-3.003-.427zm4.041.179-.314-1.558 1.447-1.08.947 1.257-2.08 1.381zm3.754-2.831-.838.785-.931-1.236.831-.637a.73.73 0 0 1 .543-.143.716.716 0 0 1 .395 1.231z" style="fill:var(--color1, #2e2f42)"/><path fill="#2e2f42" d="m13.602 18.544-2.143-2.134a.53.53 0 0 0-.752 0l-2.143 2.134a.533.533 0 0 0 0 .756l2.143 2.133a.53.53 0 0 0 .752 0l2.143-2.133a.532.532 0 0 0 0-.756zm-2.519 1.759-1.386-1.381 1.386-1.381 1.387 1.381-1.387 1.381zm6.081-15.232-.258 1.035c.071.018 1.738.452 1.738 2.149h1.067c0-2.017-1.666-2.966-2.546-3.185zm2.547 4.251h-1.067v1.067h1.067V9.322z" style="fill:var(--color1, #2e2f42)"/></symbol><symbol id="icon-client-logo1" viewBox="0 0 32 32"><path fill="#8e8f99" d="m11.692 9.538 2.156 2.054-4.002-.002v9.967h10.462v-3.811l2.154 2.052V9.538H11.693zm8.521 7.967-6.114-5.825h6.114v5.825zm-1.898 2.594h-6.813v-6.703h.482v6.249h6.332v.454zm-5.455 3.304-.254-.522h-.21l.368.691v.403h.19v-.403l.368-.691h-.209l-.254.522zm.936-.522h.045l.413 1.094h-.198l-.088-.256h-.423l-.088.256h-.198l.412-1.094h.126zm-.2.688h.32l-.16-.464-.16.464zm1.322-.181a.547.547 0 0 1-.089-.138.296.296 0 0 1 .012-.255.235.235 0 0 1 .1-.095.315.315 0 0 1 .151-.034c.056 0 .103.011.143.034s.072.051.093.088a.23.23 0 0 1 .033.12c0 .035-.006.066-.019.095s-.03.055-.052.078a.507.507 0 0 1-.077.067l-.076.055.217.256a.43.43 0 0 0 .047-.204h.156c0 .053-.005.103-.016.151a.473.473 0 0 1-.08.18l.16.189h-.21l-.064-.075a.407.407 0 0 1-.112.061.502.502 0 0 1-.359-.011.293.293 0 0 1-.166-.27c0-.045.009-.084.028-.117s.044-.066.076-.095c.03-.027.063-.054.101-.081zm.089.11-.023.016c-.027.022-.046.042-.059.062a.182.182 0 0 0-.011.185.146.146 0 0 0 .061.062.2.2 0 0 0 .098.023.272.272 0 0 0 .121-.028.398.398 0 0 0 .056-.034l-.243-.286zm.044-.2.067-.045c.032-.021.054-.042.068-.062s.02-.046.02-.077c0-.026-.01-.05-.03-.072s-.048-.033-.085-.033c-.026 0-.047.006-.065.018s-.031.027-.04.047a.147.147 0 0 0-.013.064c0 .023.006.046.017.07s.027.048.047.074l.013.016zm1.913.321h-.188c-.006.048-.017.088-.035.121s-.042.057-.076.074a.283.283 0 0 1-.13.026.212.212 0 0 1-.191-.1c-.02-.032-.035-.07-.045-.115s-.014-.095-.014-.15v-.092c0-.058.005-.11.016-.155s.027-.084.049-.115a.217.217 0 0 1 .193-.095c.053 0 .095.009.128.027s.057.043.074.077a.351.351 0 0 1 .033.121h.188c-.008-.073-.028-.138-.062-.195s-.08-.101-.14-.133-.134-.048-.221-.048c-.069 0-.13.012-.186.036s-.101.059-.14.104c-.039.045-.069.099-.09.163s-.031.135-.031.213v.091c0 .079.01.15.03.213s.05.118.089.163a.407.407 0 0 0 .322.14c.088 0 .163-.016.225-.048s.109-.076.143-.131a.434.434 0 0 0 .06-.192zm1.044-.161v-.06c0-.083-.011-.157-.033-.222s-.052-.121-.092-.168c-.04-.047-.088-.082-.143-.106s-.117-.037-.185-.037c-.067 0-.128.012-.184.037s-.103.059-.143.106c-.04.046-.071.102-.093.168s-.033.139-.033.222v.06c0 .083.011.157.033.222s.054.121.095.168a.41.41 0 0 0 .327.142.405.405 0 0 0 .328-.142c.04-.046.071-.102.092-.168s.032-.14.032-.222zm-.189-.061v.062c0 .061-.006.115-.018.162s-.029.087-.051.119c-.023.032-.05.056-.083.073s-.07.024-.112.024c-.042 0-.079-.008-.111-.024s-.061-.041-.084-.073c-.023-.033-.041-.072-.053-.119s-.018-.101-.018-.162v-.062c0-.061.006-.115.018-.162s.029-.086.052-.118a.227.227 0 0 1 .194-.097c.041 0 .079.008.112.025.033.016.061.04.083.072s.04.071.052.118c.012.047.018.1.018.162z" style="fill:var(--color3, #8e8f99)"/></symbol><symbol id="icon-client-logo2" viewBox="0 0 32 32"><path fill="#8e8f99" d="M15.42 9.211h-.042c-.065-.004-.129-.005-.194-.007h-.14a7.717 7.717 0 0 0-.399.009 8.726 8.726 0 0 0-3.236.825l-.133.064v6.813l.311-.106c.273-.094.564-.178.866-.257a10.57 10.57 0 0 1 2.491-.331v.895c-.111.001-.22.004-.328.009h-.026a9.918 9.918 0 0 0-1.916.294 9.722 9.722 0 0 0-2.283.89V9.572a9.123 9.123 0 0 1 2.395-.974 9.198 9.198 0 0 1 2.257-.291h.132c.157.004.311.011.455.022a6.59 6.59 0 0 1 1.125.179v.881a6.911 6.911 0 0 0-1.09-.164l-.022-.002c-.076-.006-.152-.013-.223-.013zm1.55.9c.195.015.398.022.602.022a9.687 9.687 0 0 0 2.373-.304 9.802 9.802 0 0 0 2.282-.89v8.582a9.198 9.198 0 0 1-2.396.974 9.197 9.197 0 0 1-2.257.29 6.859 6.859 0 0 1-1.712-.202V9.946a7.141 7.141 0 0 0 1.108.166zm4.368.067-.311.105c-.286.096-.575.182-.866.259-.845.217-1.714.329-2.587.332-.203 0-.39-.005-.571-.017l-.248-.016v7.008l.213.019c.198.017.402.026.607.026a8.243 8.243 0 0 0 2.037-.264 8.518 8.518 0 0 0 1.592-.572l.133-.064v-6.815zM10.996 21.296a.464.464 0 0 0-.346-.14.508.508 0 0 0-.356.14.509.509 0 0 0-.136.35v1.167a.545.545 0 0 0 .046.239c.028.06.067.113.117.157a.409.409 0 0 0 .16.083.64.64 0 0 0 .174.024.508.508 0 0 0 .344-.149.5.5 0 0 0 .139-.343v-.131h-.305v.104a.262.262 0 0 1-.018.104.196.196 0 0 1-.044.066.197.197 0 0 1-.064.034.2.2 0 0 1-.064.011.157.157 0 0 1-.143-.063.27.27 0 0 1-.04-.157v-1.088a.374.374 0 0 1 .037-.174.156.156 0 0 1 .15-.071.161.161 0 0 1 .136.066c.034.045.052.1.051.157v.101h.302v-.119a.546.546 0 0 0-.139-.368zM12.809 21.283a.539.539 0 0 0-.529-.095.535.535 0 0 0-.161.095.46.46 0 0 0-.118.164.53.53 0 0 0-.044.226v1.12a.544.544 0 0 0 .044.229c.028.06.068.114.118.156a.487.487 0 0 0 .161.099.538.538 0 0 0 .364 0 .504.504 0 0 0 .28-.255.547.547 0 0 0 .044-.229v-1.12a.507.507 0 0 0-.159-.39zm-.143 1.509a.202.202 0 0 1-.061.162c-.04.034-.091.052-.144.052s-.103-.019-.144-.052a.204.204 0 0 1-.061-.162v-1.12a.202.202 0 0 1 .061-.162c.04-.034.091-.052.144-.052s.103.019.144.052c.021.021.038.046.049.074s.015.058.012.088v1.12zM15.19 23.292v-2.12h-.293l-.385 1.122h-.005l-.388-1.122h-.29v2.12h.303v-1.289h.005l.297.912h.151l.299-.912h.005v1.289h.303zM16.91 21.321a.427.427 0 0 0-.171-.116.683.683 0 0 0-.22-.033h-.45v2.12h.302v-.828h.156a.557.557 0 0 0 .272-.058.438.438 0 0 0 .166-.162.505.505 0 0 0 .069-.185c.012-.08.017-.16.016-.241a1.186 1.186 0 0 0-.03-.303.454.454 0 0 0-.111-.195zm-.155.646a.263.263 0 0 1-.028.11.165.165 0 0 1-.078.074.318.318 0 0 1-.142.027h-.138v-.721h.156a.288.288 0 0 1 .136.027.173.173 0 0 1 .071.078.282.282 0 0 1 .026.118v.141c0 .049.003.1 0 .146h-.003zM18.341 21.173h-.248l-.467 2.12h.302l.089-.455h.412l.089.455h.302l-.479-2.12zm-.279 1.375.149-.768h.005l.148.768h-.302zM20.292 22.449h-.005l-.456-1.277h-.29v2.12h.302v-1.275h.006l.462 1.275h.284v-2.12h-.302v1.277zM22.138 21.173l-.243.843h-.006l-.243-.843h-.32l.415 1.224v.896h.302v-.896l.415-1.224h-.32zM10.154 23.891h.146v.408h.099v-.408h.145v-.084h-.389v.084zM11.377 23.807l-.191.492h.105l.04-.112h.196l.042.112h.107l-.195-.492h-.105zm-.015.297.067-.182.067.182h-.134zM12.587 24.118h.114v.063a.183.183 0 0 1-.117.041.125.125 0 0 1-.104-.047.209.209 0 0 1-.037-.128c0-.11.047-.164.142-.164.025-.003.05.004.07.018s.035.036.041.06l.097-.019c-.021-.096-.09-.145-.209-.145a.248.248 0 0 0-.172.063c-.025.024-.044.054-.056.087s-.017.068-.015.103a.272.272 0 0 0 .063.185.24.24 0 0 0 .187.072.299.299 0 0 0 .209-.078v-.194h-.213v.083zM13.822 23.807h-.1v.492h.345v-.084h-.245v-.408zM14.867 23.807h-.1v.492h.1v-.492zM15.888 24.136l-.202-.329h-.097v.492h.093v-.322l.198.322h.099v-.492h-.091v.329zM16.811 24.082h.245v-.084h-.245v-.108h.264v-.084h-.363v.492h.374v-.084h-.274v-.133zM19.05 24.001h-.194v-.194h-.099v.492h.099v-.215h.194v.215h.099v-.492h-.099v.194zM19.979 24.082h.246v-.084h-.246v-.108h.265v-.084h-.363v.492h.373v-.084h-.274v-.133zM21.238 24.082c.086-.013.129-.059.129-.137a.116.116 0 0 0-.048-.109.287.287 0 0 0-.144-.029h-.209v.492h.099v-.206h.019a.128.128 0 0 1 .061.011.11.11 0 0 1 .035.036l.107.157h.118l-.06-.096a.342.342 0 0 0-.109-.118zm-.1-.068h-.073v-.124h.078a.242.242 0 0 1 .1.012c.007.006.013.014.017.023s.005.018.005.028c0 .01-.003.019-.008.027s-.011.016-.019.021a.283.283 0 0 1-.1.012zM22.188 24.082h.245v-.084h-.245v-.108h.265v-.084h-.364v.492h.374v-.084h-.274v-.133z" style="fill:var(--color3, #8e8f99)"/></symbol><symbol id="icon-client-logo3" viewBox="0 0 32 32"><path fill="#8e8f99" d="M11.326 22.53c.005 0 .01.001.014.003s.009.004.012.007l.068.064a.556.556 0 0 1-.191.121.752.752 0 0 1-.271.044.71.71 0 0 1-.255-.041.556.556 0 0 1-.192-.115.508.508 0 0 1-.124-.177.576.576 0 0 1-.043-.227.523.523 0 0 1 .179-.405.593.593 0 0 1 .204-.115.83.83 0 0 1 .506-.004c.067.025.129.06.183.102l-.057.068a.053.053 0 0 1-.014.012c-.007.004-.015.006-.023.005s-.017-.003-.025-.007l-.031-.018-.042-.023a.484.484 0 0 0-.235-.048.571.571 0 0 0-.189.03.407.407 0 0 0-.279.402.416.416 0 0 0 .129.319.379.379 0 0 0 .141.084c.055.02.115.029.175.029a.907.907 0 0 0 .104-.006.4.4 0 0 0 .224-.094.06.06 0 0 1 .032-.012zM13.288 22.209a.538.538 0 0 1-.046.226c-.028.065-.071.125-.128.175s-.125.089-.201.115a.842.842 0 0 1-.516 0 .619.619 0 0 1-.2-.115.501.501 0 0 1-.129-.177.581.581 0 0 1 0-.452.541.541 0 0 1 .129-.178.61.61 0 0 1 .2-.111.827.827 0 0 1 .516 0c.075.026.144.065.2.115s.1.11.128.175c.031.073.047.15.046.227zm-.178 0a.487.487 0 0 0-.032-.181.379.379 0 0 0-.235-.222.6.6 0 0 0-.375 0 .395.395 0 0 0-.144.086.365.365 0 0 0-.092.136.527.527 0 0 0 0 .363.369.369 0 0 0 .236.221.616.616 0 0 0 .375 0 .379.379 0 0 0 .235-.221.453.453 0 0 0 .032-.181zM14.627 22.4l.018.041.02-.041.022-.04.434-.674c.008-.012.016-.019.025-.021a.147.147 0 0 1 .036-.004h.128v1.096h-.152V21.879l-.437.684c-.006.01-.014.019-.026.025s-.024.009-.037.009h-.025c-.013 0-.026-.003-.037-.009s-.02-.015-.025-.025l-.449-.688V22.755h-.147v-1.094h.128a.11.11 0 0 1 .036.004.045.045 0 0 1 .024.021l.443.675a.216.216 0 0 1 .022.039zM16.26 22.345v.411h-.17v-1.095h.379a.823.823 0 0 1 .211.024.423.423 0 0 1 .149.068.28.28 0 0 1 .085.107c.02.045.03.092.029.14a.31.31 0 0 1-.031.14.31.31 0 0 1-.092.11.446.446 0 0 1-.15.073.703.703 0 0 1-.205.025l-.206-.003zm0-.117h.206a.488.488 0 0 0 .132-.017.291.291 0 0 0 .095-.047.194.194 0 0 0 .058-.073.199.199 0 0 0 .02-.092c.002-.03-.004-.061-.017-.089s-.033-.054-.059-.075a.374.374 0 0 0-.228-.059h-.206v.451zM18.543 22.757h-.134a.066.066 0 0 1-.037-.01.074.074 0 0 1-.022-.025l-.116-.265h-.58l-.12.265a.063.063 0 0 1-.021.025.07.07 0 0 1-.038.011h-.134l.51-1.097h.177l.516 1.097zm-.841-.407h.479l-.202-.446a.799.799 0 0 1-.038-.103l-.02.057a.54.54 0 0 1-.019.046l-.2.446zM19.277 21.666c.01.005.019.011.025.02l.743.827v-.851h.152v1.097h-.085a.08.08 0 0 1-.062-.027l-.742-.826v.853h-.152v-1.097h.09c.011 0 .021.002.031.005zM21.449 22.321v.435h-.17v-.435l-.47-.66h.152a.068.068 0 0 1 .037.009.092.092 0 0 1 .023.025l.294.426.031.051c.009.016.015.031.021.046l.022-.047a.36.36 0 0 1 .029-.05l.29-.429c.006-.009.014-.016.022-.023a.058.058 0 0 1 .037-.011h.154l-.471.663zM14.543 19.821c.074.008.149.015.224.02 1.146-.438 2.115-1.155 2.787-2.061s1.016-1.961.99-3.034l-1.263-1.079c.257 1.142.137 2.322-.347 3.409s-1.312 2.037-2.391 2.745z" style="fill:var(--color3, #8e8f99)"/><path fill="#8e8f99" d="m14.092 19.77.034.006c1.154-.705 2.034-1.69 2.525-2.827s.573-2.374.233-3.55l-1.799-1.537c.728 1.263 1.02 2.677.845 4.077s-.813 2.728-1.838 3.831zM20.192 16.013c-.306 1.178-1.048 2.241-2.117 3.03a6.77 6.77 0 0 1-1.006.617c.87-.219 1.67-.605 2.338-1.129s1.186-1.173 1.514-1.895l-.73-.623z" style="fill:var(--color3, #8e8f99)"/><path fill="#8e8f99" d="m19.906 15.839-1.039-.887c-.02 1.012-.357 2.001-.975 2.864s-1.496 1.569-2.542 2.044h.005c.233 0 .466-.012.697-.036.977-.341 1.841-.883 2.513-1.578s1.133-1.522 1.34-2.406zM14.242 11.214l-1.239-1.06c-1.108.366-2.061 1.009-2.734 1.845s-1.035 1.826-1.038 2.841c.004 1.121.446 2.209 1.255 3.092s1.94 1.509 3.213 1.781c1.137-1.183 1.802-2.645 1.9-4.173s-.378-3.043-1.357-4.325zM22.769 15.676c-.005-1.33-.625-2.605-1.726-3.546s-2.593-1.471-4.15-1.475a6.685 6.685 0 0 0-2.104.335l7.587 6.482c.26-.573.393-1.182.392-1.797z" style="fill:var(--color3, #8e8f99)"/></symbol><symbol id="icon-client-logo4" viewBox="0 0 32 32"><path fill="#8e8f99" d="M7.409 14.005h-.001c-.734 0-1.329.537-1.329 1.198v.001c0 .662.595 1.198 1.329 1.198h.001c.734 0 1.329-.537 1.329-1.198v-.001c0-.662-.595-1.198-1.329-1.198zM17.219 13.622c-.002-.919-.408-1.8-1.129-2.45s-1.698-1.016-2.717-1.018c-1.02.002-1.997.368-2.719 1.018s-1.127 1.531-1.129 2.451v5.069s7.693-.773 7.694-5.068v-.001zM3.385 20.355c.002.64.284 1.253.786 1.705s1.181.707 1.891.709c.709-.002 1.389-.257 1.89-.709s.784-1.065.786-1.704v-3.527s-5.353.538-5.353 3.526zm2.676.632c-.139 0-.274-.037-.389-.107s-.205-.168-.258-.284c-.053-.115-.067-.243-.04-.365s.094-.235.192-.324c.098-.088.223-.149.359-.173s.277-.012.405.036.238.129.315.233a.589.589 0 0 1-.087.8c-.065.059-.143.106-.228.138s-.177.048-.269.048v-.002zM10.957 19.851v1.313h-.27v-1.313h.27zm.522.56v.211h-.597v-.211h.597zm.064-.56v.212h-.66v-.212h.66zm1.234.625v.062c0 .1-.014.189-.041.269s-.065.147-.114.203c-.049.055-.108.098-.177.127s-.143.044-.226.044c-.082 0-.158-.015-.226-.044s-.127-.072-.177-.127c-.05-.056-.089-.123-.116-.203s-.041-.169-.041-.269v-.062c0-.1.014-.19.041-.269s.065-.147.114-.203c.05-.056.109-.099.177-.128s.144-.044.226-.044c.083 0 .158.015.226.044s.127.072.177.128c.05.056.088.123.115.203s.041.168.041.269zm-.273.063v-.064c0-.07-.006-.131-.019-.184s-.031-.097-.056-.133a.247.247 0 0 0-.212-.109.255.255 0 0 0-.122.028c-.035.018-.065.045-.089.081s-.042.081-.055.133-.019.114-.019.184v.064c0 .069.006.13.019.184s.031.098.056.134c.025.036.055.063.09.082s.076.028.122.028.086-.009.122-.028.065-.046.089-.082c.024-.037.042-.081.055-.134s.019-.115.019-.184zm1.151.281c0-.023-.004-.044-.011-.063s-.019-.037-.038-.052c-.019-.016-.045-.032-.078-.048s-.077-.032-.131-.049c-.059-.019-.116-.041-.169-.065s-.1-.052-.141-.084c-.04-.032-.072-.07-.096-.113s-.034-.092-.034-.149c0-.055.012-.104.036-.149s.058-.084.101-.115c.043-.032.094-.057.153-.075s.125-.026.196-.026c.097 0 .181.017.253.052s.128.083.168.143c.04.061.06.13.06.208h-.269c0-.038-.008-.072-.024-.101s-.04-.053-.072-.069a.256.256 0 0 0-.121-.025c-.047 0-.086.007-.117.022s-.055.033-.07.057a.136.136 0 0 0-.007.139c.011.018.028.035.05.05s.05.03.082.044c.032.014.07.027.113.041.072.022.134.046.188.073s.1.057.137.091.064.072.083.114a.354.354 0 0 1 .028.145c0 .057-.011.108-.033.153s-.054.083-.096.114-.092.055-.151.071-.123.024-.196.024c-.065 0-.129-.008-.192-.025s-.12-.044-.172-.078a.379.379 0 0 1-.169-.325h.271c0 .041.006.075.019.104s.03.051.053.069c.023.017.051.03.083.038s.068.012.106.012c.047 0 .085-.007.115-.02s.053-.032.068-.055a.143.143 0 0 0 .023-.079zm1.042-.969v1.313h-.27v-1.313h.27zm.404 0v.212H14.03v-.212h1.071zm1.034 1.101v.211h-.699v-.211h.699zm-.61-1.101v1.313h-.27v-1.313h.27zm.519.534v.206h-.608v-.206h.608zm.09-.534v.212h-.698v-.212h.698zm.159 0h.489c.1 0 .187.015.259.045s.129.075.168.133.059.131.059.217c0 .07-.012.131-.036.181s-.057.092-.1.125a.527.527 0 0 1-.151.079l-.086.045h-.425l-.002-.211h.316c.047 0 .087-.008.118-.025s.055-.04.07-.07a.22.22 0 0 0 .024-.105c0-.042-.008-.078-.023-.109s-.039-.054-.071-.07a.267.267 0 0 0-.12-.024h-.219v1.101h-.27V19.85zm.734 1.312-.299-.585.286-.002.303.574v.013h-.289zm1.42-.468h-.334v-.211h.334c.052 0 .094-.008.126-.025s.056-.041.071-.072.023-.065.023-.104c0-.039-.008-.075-.023-.109s-.039-.061-.071-.081a.237.237 0 0 0-.126-.031h-.241v1.101h-.27V19.85h.511c.103 0 .191.019.264.056s.13.087.169.152.059.139.059.223c0 .085-.02.158-.059.22s-.096.11-.169.143a.622.622 0 0 1-.264.05zm1.559.257v.211h-.699v-.211h.699zm-.61-1.101v1.313h-.27v-1.313h.27zm.519.534v.206h-.608v-.206h.608zm.09-.534v.212h-.698v-.212h.698zm.764 0v1.313h-.27v-1.313h.27zm.404 0v.212h-1.071v-.212h1.071zm1.034 1.101v.211h-.699v-.211h.699zm-.61-1.101v1.313h-.27v-1.313h.27zm.519.534v.206h-.608v-.206h.608zm.091-.534v.212h-.698v-.212h.698zm.158 0h.489c.1 0 .187.015.259.045s.129.075.168.133.059.131.059.217c0 .07-.012.131-.036.181s-.057.092-.1.125a.527.527 0 0 1-.151.079l-.086.045h-.425l-.002-.211h.316c.047 0 .087-.008.118-.025s.055-.04.07-.07a.22.22 0 0 0 .024-.105c0-.042-.008-.078-.023-.109s-.039-.054-.071-.07a.267.267 0 0 0-.12-.024h-.219v1.101h-.27V19.85zm.734 1.312-.299-.585.286-.002.303.574v.013H23.1zm1.132-.343c0-.023-.004-.044-.011-.063s-.019-.037-.038-.052c-.019-.016-.045-.032-.078-.048s-.077-.032-.131-.049c-.059-.019-.116-.041-.169-.065s-.1-.052-.141-.084c-.04-.032-.072-.07-.096-.113s-.034-.092-.034-.149c0-.055.012-.104.036-.149s.058-.084.101-.115c.043-.032.094-.057.153-.075s.125-.026.196-.026c.097 0 .181.017.253.052s.128.083.168.143c.04.061.06.13.06.208h-.269c0-.038-.008-.072-.024-.101s-.04-.053-.072-.069a.256.256 0 0 0-.121-.025c-.047 0-.086.007-.117.022s-.055.033-.07.057a.136.136 0 0 0-.007.139c.011.018.028.035.05.05s.05.03.082.044c.032.014.07.027.113.041.072.022.134.046.188.073s.1.057.137.091.064.072.083.114a.354.354 0 0 1 .028.145c0 .057-.011.108-.033.153s-.054.083-.096.114-.092.055-.151.071-.123.024-.196.024c-.065 0-.129-.008-.192-.025s-.12-.044-.172-.078a.379.379 0 0 1-.169-.325h.271c0 .041.006.075.019.104s.03.051.053.069c.023.017.051.03.083.038s.068.012.106.012c.047 0 .085-.007.115-.02s.053-.032.068-.055a.143.143 0 0 0 .023-.079z" style="fill:var(--color3, #8e8f99)"/></symbol><symbol id="icon-client-logo5" viewBox="0 0 32 32"><path fill="#8e8f99" d="M8.244 21.038c.076.084.116.19.114.298.004.071-.01.141-.04.206s-.077.123-.136.17a.819.819 0 0 1-.512.137h-.9v-1.887h.882a.818.818 0 0 1 .488.125c.057.043.102.097.132.158s.043.128.039.195a.413.413 0 0 1-.102.289.492.492 0 0 1-.268.148c.119.02.227.077.304.161zm-1.056-.285h.377a.386.386 0 0 0 .24-.063c.028-.023.05-.052.064-.084s.02-.066.017-.101a.224.224 0 0 0-.08-.184.4.4 0 0 0-.247-.064h-.371v.495zm.653.724a.224.224 0 0 0 .089-.191c.002-.036-.005-.073-.021-.106s-.04-.063-.071-.087a.422.422 0 0 0-.256-.068h-.395v.519h.4a.429.429 0 0 0 .253-.065zM10.046 21.849l-.49-.737h-.184v.737H8.95v-1.887h.799a.85.85 0 0 1 .556.16.558.558 0 0 1 .06.781.672.672 0 0 1-.381.192l.522.754h-.459zm-.675-.995h.345c.24 0 .359-.095.359-.286a.261.261 0 0 0-.088-.212.398.398 0 0 0-.271-.076h-.349l.004.574zM12.352 21.469h-.841l-.149.38h-.442l.772-1.866h.478l.769 1.866h-.442l-.145-.38zm-.113-.285-.307-.796-.307.796h.614zM15.238 21.849h-.419l-.939-1.283v1.283h-.418v-1.887h.418l.939 1.291v-1.291h.419v1.887zM17.628 21.397a.88.88 0 0 1-.379.333 1.345 1.345 0 0 1-.589.119h-.745v-1.887h.745c.204-.005.406.035.589.116.16.073.292.187.379.329a1.01 1.01 0 0 1 0 .99zm-.479-.045c.119-.125.185-.285.185-.45s-.066-.325-.185-.45a.776.776 0 0 0-.524-.16h-.291v1.221h.291a.78.78 0 0 0 .524-.16zM12.614 9.467s5.405 1.837 5.291 4.496v4.496s-5.401-1.838-5.288-4.496l-.002-4.496zM22.72 17.406a7.935 7.935 0 0 1 3.434-1.139v-1.408c-1.42.493-2.625 1.386-3.434 2.547z" style="fill:var(--color3, #8e8f99)"/><path fill="#8e8f99" d="M22.106 17.83c.836-1.515 2.284-2.683 4.047-3.266v-4.056s-7.698 2.617-7.535 6.403v6.402s.343-.117.883-.336c0-.205 0-.411.025-.619.159-1.758 1.087-3.386 2.58-4.528z" style="fill:var(--color3, #8e8f99)"/><path fill="#8e8f99" d="M21.374 20.208c.04-.444.131-.883.269-1.311-.93.986-1.492 2.209-1.61 3.498a5.55 5.55 0 0 0-.02.369c.437-.189.946-.425 1.481-.702a5.99 5.99 0 0 1-.12-1.854zM21.68 20.231a5.74 5.74 0 0 0 .095 1.679c2.103-1.133 4.466-2.883 4.375-4.999v-.184c-1.503.151-2.908.743-4.001 1.683a5.791 5.791 0 0 0-.469 1.821z" style="fill:var(--color3, #8e8f99)"/></symbol><symbol id="icon-client-logo6" viewBox="0 0 32 32"><path fill="#8e8f99" d="M16.471 15.829a.904.904 0 0 1-.186-.613v-.889c0-.272.062-.479.185-.621s.336-.212.637-.212c.283 0 .484.06.602.181.13.154.193.342.178.532v.209h-.506v-.212a1.026 1.026 0 0 0-.015-.207.202.202 0 0 0-.072-.123.297.297 0 0 0-.183-.048.315.315 0 0 0-.193.051.24.24 0 0 0-.084.136 1.018 1.018 0 0 0-.02.22v1.079a.548.548 0 0 0 .065.303c.025.032.06.057.101.073s.086.022.131.017a.272.272 0 0 0 .179-.049.212.212 0 0 0 .075-.131c.012-.072.017-.144.016-.216v-.219h.506v.2a.814.814 0 0 1-.175.559c-.116.132-.314.198-.605.198s-.511-.07-.636-.217zM18.577 15.838c-.128-.138-.192-.34-.192-.607v-.935c0-.264.064-.464.192-.599s.342-.203.641-.203c.297 0 .51.068.638.203s.193.335.193.599v.935c0 .264-.065.466-.195.606s-.341.209-.636.209c-.294 0-.512-.07-.641-.208zm.877-.224a.52.52 0 0 0 .061-.277v-1.144a.508.508 0 0 0-.06-.271c-.026-.033-.061-.059-.103-.075s-.088-.021-.133-.016c-.045-.005-.092 0-.134.016s-.078.042-.104.074a.5.5 0 0 0-.061.271v1.15a.52.52 0 0 0 .061.277c.029.029.066.053.107.069a.357.357 0 0 0 .367-.069v-.005zM20.658 13.522h.545l.41 1.725.419-1.725h.53l.053 2.489h-.392l-.042-1.73-.404 1.73h-.314l-.419-1.736-.039 1.736h-.396l.049-2.489zM23.226 13.522h.849c.489 0 .733.236.733.707 0 .451-.257.677-.772.676h-.289v1.106h-.524l.003-2.489zm.724 1.064a.4.4 0 0 0 .288-.079.399.399 0 0 0 .075-.281.784.784 0 0 0-.025-.226c-.007-.025-.021-.048-.039-.068s-.041-.037-.066-.05a.545.545 0 0 0-.234-.04h-.203v.744h.203zM25.563 13.522h.563l.577 2.489h-.488l-.114-.574h-.502l-.117.574h-.495l.577-2.489zm.481 1.627-.196-1.045-.196 1.045h.392zM27.169 13.522h.367l.702 1.42v-1.42h.435v2.489h-.349l-.706-1.482v1.482h-.449l.001-2.489zM29.69 15.062l-.584-1.537h.491l.356.987.334-.987h.481l-.576 1.537v.949h-.503v-.949zM17.279 17.1v.13h-.427v1.012h-.179V17.23h-.43v-.13h1.036zM18.619 18.241h-.138a.06.06 0 0 1-.039-.011.071.071 0 0 1-.023-.026l-.124-.271h-.593l-.124.271a.073.073 0 0 1-.019.031.066.066 0 0 1-.039.011h-.138l.524-1.142h.182l.53 1.137zm-.867-.424h.494l-.21-.465a.99.99 0 0 1-.039-.108 4.63 4.63 0 0 1-.02.061l-.019.048-.207.464zM19.522 18.129a.613.613 0 0 0 .257-.035c.023-.008.046-.018.07-.028v-.257h-.21c-.005 0-.01 0-.015-.002l-.013-.007-.008-.009a.023.023 0 0 1-.003-.011v-.088h.406v.438a.742.742 0 0 1-.221.093.836.836 0 0 1-.131.023 1.566 1.566 0 0 1-.153.007.786.786 0 0 1-.264-.043.643.643 0 0 1-.209-.119.55.55 0 0 1-.135-.181.574.574 0 0 1-.048-.237.524.524 0 0 1 .182-.42.606.606 0 0 1 .209-.118.887.887 0 0 1 .281-.043c.049 0 .097.003.146.01a.756.756 0 0 1 .23.074.651.651 0 0 1 .091.06l-.05.071a.048.048 0 0 1-.041.022.057.057 0 0 1-.032-.009.52.52 0 0 1-.051-.027.55.55 0 0 0-.166-.056.842.842 0 0 0-.133-.01.598.598 0 0 0-.202.032.447.447 0 0 0-.154.09.387.387 0 0 0-.097.142.532.532 0 0 0 0 .381.442.442 0 0 0 .258.234c.067.02.137.027.207.023zM21.192 18.111h.572v.13h-.747v-1.142h.179l-.004 1.012zM22.359 18.241h-.179v-1.142h.179v1.142zM23.025 17.105a.07.07 0 0 1 .027.021l.766.861a.28.28 0 0 1 0-.041v-.851h.156v1.146h-.09a.086.086 0 0 1-.039-.006.101.101 0 0 1-.028-.022l-.765-.86V18.241h-.15v-1.142h.093c.01 0 .02.002.029.005zM25.293 17.1v.126h-.635v.377h.514v.121h-.514v.39h.635v.126h-.819v-1.139h.819zM6.522 10.049l7.954 1.949v6.829l-7.954-1.948v-6.83zm-.511-.582v7.744l8.974 2.199v-7.743l-8.974-2.2z" style="fill:var(--color3, #8e8f99)"/><path fill="#8e8f99" d="m10.821 23.005-8.975-2.201v-7.743l8.975 2.2v7.744z" style="fill:var(--color3, #8e8f99)"/><path fill="#8e8f99" d="m6.16 9.961 7.851 1.925-3.339 2.882-7.852-1.925 3.34-2.881zm-.149-.494-4.165 3.594 8.975 2.2 4.164-3.594-8.974-2.2zM11.326 22.57l3.659-3.158-3.659-.898v4.056z" style="fill:var(--color3, #8e8f99)"/></symbol><symbol id="icon-clock" viewBox="0 0 32 32"><path fill="#2e2f42" d="M31.297 15.301C31.295 6.849 24.442-.002 15.989 0S.686 6.855.688 15.308C.69 22.096 5.11 27.851 11.229 29.853l.108.031a.67.67 0 0 0 .529-.064.642.642 0 0 0 .284-.357l3.865-12.25a1.913 1.913 0 1 0-.851-3.63l.011-.005-5.106-5.107a.637.637 0 1 0-.902.902l5.104 5.109a1.873 1.873 0 0 0 .532 2.306l.004.003-3.683 11.673C3.846 25.783.119 17.71 2.801 10.432 5.482 3.155 13.556-.573 20.833 2.109s11.004 10.755 8.323 18.032c-1.345 3.581-4.004 6.406-7.374 7.938l-.088.036-.398-1.875a.638.638 0 0 0-1.049-.343l.001-.001-3.837 3.425a.639.639 0 0 0 .227 1.084l.005.001 4.899 1.564a.637.637 0 0 0 .818-.743l.001.004-.391-1.839c5.528-2.374 9.329-7.772 9.329-14.057v-.034.002zm-15.305-.637a.638.638 0 0 1 0 1.276.638.638 0 0 1 0-1.276zm2.101 14.863 2.184-1.948.603 2.84-2.787-.892z" style="fill:var(--color1, #2e2f42)"/><path fill="#4d5ae5" d="M15.354 3.185V4.46a.638.638 0 1 0 1.275 0V3.185a.639.639 0 0 0-1.274-.002v.001zM3.876 14.664a.637.637 0 1 0 .001 1.274h1.275a.638.638 0 1 0 0-1.274H3.877zm24.232 1.275a.637.637 0 1 0 0-1.274h-1.275a.639.639 0 0 0-.002 1.274H28.107z" style="fill:var(--color2, #4d5ae5)"/></symbol><symbol id="icon-diagram" viewBox="0 0 32 32"><path fill="#4d5ae5" d="M14.925 14.965h1.066v4.797h-1.066v-4.797zm4.265 2.132h1.066v2.665H19.19v-2.665zm-8.529 1.599h1.066v1.066h-1.066v-1.066zm-3.198-.533h1.066v1.599H7.463v-1.599z" style="fill:var(--color2, #4d5ae5)"/><path fill="#2e2f42" d="M1.599 28.291h25.587a1.6 1.6 0 0 0 1.599-1.599v-2.133a1.6 1.6 0 0 0-1.599-1.599h-.534V9.667l3.028-2.868a1.608 1.608 0 1 0-.742-.753l-.004-.01-2.282 2.163v-1.23a1.6 1.6 0 0 0-1.599-1.599H3.73a1.6 1.6 0 0 0-1.599 1.599V22.961h-.533A1.6 1.6 0 0 0-.001 24.56v2.134a1.6 1.6 0 0 0 1.599 1.599zM30.384 4.837a.533.533 0 0 1 0 1.066.533.533 0 0 1 0-1.066zM3.199 6.969c0-.295.239-.534.533-.534h21.322c.294 0 .533.239.533.534v2.238l-1.066 1.013V8.035a.532.532 0 0 0-.533-.533H4.798a.533.533 0 0 0-.533.533v13.326c0 .295.239.534.533.534h19.19a.534.534 0 0 0 .533-.534v-9.674l1.066-1.01V22.96H3.199V6.969zm4.797 6.93h-.005a1.6 1.6 0 1 0 1.112 2.748l1.853.93a.532.532 0 0 0 .636-.123l3.938-4.431 3.872 2.902a.532.532 0 0 0 .686-.04l3.365-3.188v8.131H5.33V8.568h18.124v2.66L19.682 14.8l-3.905-2.928a.531.531 0 0 0-.717.072v.001l-3.993 4.493-1.493-.746c.011-.064.018-.129.021-.194a1.6 1.6 0 0 0-1.599-1.599zm.533 1.599a.533.533 0 0 1-1.066 0 .533.533 0 0 1 1.066 0zm3.198 8.528h5.331v.533a.533.533 0 0 1-.533.533h-4.264a.533.533 0 0 1-.533-.533v-.533zm-10.661.534c0-.294.239-.533.533-.533h9.062v.533a1.6 1.6 0 0 0 1.599 1.599h4.265a1.6 1.6 0 0 0 1.599-1.599v-.534h9.061c.295 0 .534.238.534.533v2.133a.534.534 0 0 1-.534.533H1.599a.533.533 0 0 1-.533-.533v-2.133z" style="fill:var(--color1, #2e2f42)"/></symbol><symbol id="icon-facebook" viewBox="0 0 32 32"><path fill="#f4f4fd" d="M21.33 5.314h2.92V.226A36.551 36.551 0 0 0 20.125 0h-.138.007C15.782 0 12.9 2.65 12.9 7.52V12H8.25v5.688h4.648V32h5.698V17.69h4.46l.708-5.69h-5.17V8.08c.002-1.644.444-2.768 2.736-2.768z" style="fill:var(--color4, #f4f4fd)"/></symbol><symbol id="icon-facebook-footer" viewBox="0 0 32 32"><path fill="#f4f4fd" d="M21.329 5.313h2.921V.225C23.746.156 22.013 0 19.994 0c-4.212 0-7.097 2.649-7.097 7.519V12H8.249v5.688h4.648V32h5.699V17.689h4.46l.708-5.688h-5.169V8.082c.001-1.644.444-2.769 2.735-2.769z" style="fill:var(--color4, #f4f4fd)"/></symbol><symbol id="icon-instagram" viewBox="0 0 32 32"><path fill="#f4f4fd" d="M31.968 9.408c-.074-1.7-.35-2.87-.744-3.882a7.844 7.844 0 0 0-1.849-2.839l-.001-.001A7.898 7.898 0 0 0 26.596.862l-.054-.018c-1.02-.394-2.18-.67-3.88-.744C20.946.02 20.4 0 16.06 0c-4.346 0-4.89.02-6.596.094-1.7.074-2.868.35-3.88.744a7.844 7.844 0 0 0-2.839 1.849l-.001.001A7.89 7.89 0 0 0 .918 5.466L.9 5.52C.506 6.54.232 7.7.156 9.4c-.08 1.714-.1 2.26-.1 6.602 0 4.346.02 4.89.094 6.596.074 1.7.35 2.87.744 3.882a7.886 7.886 0 0 0 1.85 2.838c.8.812 1.77 1.444 2.832 1.844 1.02.394 2.18.67 3.882.744 1.706.076 2.25.094 6.596.094 4.344 0 4.888-.02 6.594-.094 1.7-.074 2.87-.35 3.882-.744a8.233 8.233 0 0 0 4.663-4.627l.019-.055c.394-1.02.67-2.18.744-3.882.076-1.706.094-2.25.094-6.596 0-4.344-.006-4.888-.08-6.594zm-2.88 13.064c-.07 1.564-.332 2.408-.552 2.97a5.34 5.34 0 0 1-3.002 3.027l-.036.013c-.562.218-1.412.48-2.968.548-1.688.076-2.194.094-6.464.094s-4.782-.02-6.464-.094c-1.564-.068-2.408-.33-2.97-.55a4.947 4.947 0 0 1-1.837-1.193l-.001-.001a5.001 5.001 0 0 1-1.183-1.804l-.011-.034c-.22-.562-.48-1.412-.55-2.968-.074-1.688-.094-2.196-.094-6.464 0-4.27.02-4.782.094-6.464.07-1.564.332-2.408.55-2.97a4.888 4.888 0 0 1 1.2-1.838A4.96 4.96 0 0 1 6.64 3.55c.56-.22 1.412-.48 2.968-.55 1.688-.074 2.194-.094 6.464-.094 4.276 0 4.78.02 6.464.094 1.562.07 2.406.332 2.968.55a4.929 4.929 0 0 1 1.84 1.194 4.98 4.98 0 0 1 1.192 1.84c.22.56.482 1.41.55 2.968.076 1.688.094 2.194.094 6.464s-.018 4.77-.092 6.456z" style="fill:var(--color4, #f4f4fd)"/><path fill="#f4f4fd" d="M16.06 7.782a8.222 8.222 0 0 0-.01 16.44h.009a8.222 8.222 0 0 0 .01-16.44h-.009zm0 13.554a5.334 5.334 0 1 1 0-10.668 5.334 5.334 0 1 1 0 10.668zM26.524 7.458a1.92 1.92 0 0 1-3.84 0 1.92 1.92 0 0 1 3.84 0z" style="fill:var(--color4, #f4f4fd)"/></symbol><symbol id="icon-instagram-footer" viewBox="0 0 32 32"><path fill="#f4f4fd" d="M31.969 9.408c-.076-1.7-.351-2.869-.744-3.883a7.845 7.845 0 0 0-1.849-2.836l-.001-.001A7.89 7.89 0 0 0 26.597.862l-.054-.018C25.524.451 24.36.173 22.66.1 20.948.02 20.404 0 16.061 0c-4.348 0-4.892.019-6.599.093-1.699.076-2.868.351-3.88.744a7.84 7.84 0 0 0-2.837 1.849l-.001.001A7.89 7.89 0 0 0 .918 5.465L.9 5.519C.507 6.538.231 7.7.156 9.399c-.08 1.715-.1 2.259-.1 6.603 0 4.345.019 4.889.093 6.596.076 1.7.351 2.868.745 3.881a7.93 7.93 0 0 0 1.848 2.838l.001.001a7.867 7.867 0 0 0 2.832 1.844c1.019.393 2.181.668 3.883.744 1.707.075 2.249.093 6.595.093 4.344 0 4.888-.019 6.595-.093 1.7-.076 2.869-.351 3.883-.744a8.231 8.231 0 0 0 4.662-4.627l.019-.055c.395-1.019.669-2.181.744-3.881.075-1.707.093-2.251.093-6.596 0-4.344-.005-4.888-.08-6.595zm-2.882 13.065c-.068 1.563-.331 2.407-.549 2.969a5.342 5.342 0 0 1-3.003 3.025l-.036.013c-.563.22-1.413.481-2.969.551-1.688.075-2.193.093-6.464.093-4.269 0-4.781-.019-6.464-.093-1.563-.069-2.407-.331-2.969-.551a4.945 4.945 0 0 1-1.836-1.192l-.001-.001a4.971 4.971 0 0 1-1.183-1.803l-.011-.034c-.219-.563-.48-1.413-.549-2.969-.075-1.688-.093-2.195-.093-6.464 0-4.271.019-4.783.093-6.464.069-1.563.331-2.407.549-2.969a4.911 4.911 0 0 1 1.2-1.839 4.972 4.972 0 0 1 1.806-1.182l.034-.011c.561-.219 1.412-.48 2.968-.551 1.688-.075 2.195-.093 6.464-.093 4.276 0 4.781.019 6.464.093 1.563.069 2.407.332 2.969.551a4.932 4.932 0 0 1 1.837 1.193c.532.52.937 1.144 1.195 1.839.219.563.48 1.413.549 2.969.075 1.688.093 2.193.093 6.464 0 4.269-.019 4.769-.093 6.457z" style="fill:var(--color4, #f4f4fd)"/><path fill="#f4f4fd" d="M16.059 7.783a8.224 8.224 0 0 0-8.22 8.22 8.222 8.222 0 0 0 8.22 8.221 8.222 8.222 0 0 0 8.221-8.221 8.223 8.223 0 0 0-8.221-8.22zm0 13.553a5.333 5.333 0 0 1 .001-10.666h.001a5.333 5.333 0 0 1-.001 10.666h-.001zM26.524 7.457l.001.051a1.92 1.92 0 0 1-3.84 0l.001-.053v.003a1.92 1.92 0 0 1 3.838-.002v.003z" style="fill:var(--color4, #f4f4fd)"/></symbol><symbol id="icon-linkedin" viewBox="0 0 32 32"><path fill="#f4f4fd" d="M31.992 32H32V20.26c0-5.74-1.236-10.164-7.948-10.164-3.226 0-5.392 1.772-6.276 3.45h-.094v-2.912H11.32V32h6.628V21.42c0-2.784.528-5.476 3.976-5.476 3.4 0 3.45 3.178 3.45 5.656V32h6.62zM.528 10.636h6.634V32H.528V10.636zM3.842 0C1.722 0 .002 1.72.002 3.84s1.72 3.88 3.84 3.88c2.122 0 3.844-1.76 3.844-3.88S5.96 0 3.84 0z" style="fill:var(--color4, #f4f4fd)"/></symbol><symbol id="icon-linkedin-footer" viewBox="0 0 32 32"><path fill="#f4f4fd" d="M31.992 32H32V20.263c0-5.741-1.236-10.164-7.948-10.164-3.227 0-5.392 1.771-6.276 3.449h-.093v-2.913h-6.364V32h6.627V21.421c0-2.785.528-5.479 3.977-5.479 3.399 0 3.449 3.179 3.449 5.657v10.4h6.62zM.528 10.636h6.635V32H.528V10.636zM3.843 0A3.845 3.845 0 0 0 0 3.843c0 2.121 1.721 3.879 3.843 3.879s3.843-1.757 3.843-3.879A3.846 3.846 0 0 0 3.843 0z" style="fill:var(--color4, #f4f4fd)"/></symbol><symbol id="icon-twitter" viewBox="0 0 32 32"><path fill="#f4f4fd" d="M32 6.078c-1.1.494-2.376.858-3.712 1.029l-.068.007a6.56 6.56 0 0 0 2.873-3.58l.013-.046a12.858 12.858 0 0 1-4.076 1.574l-.084.014A6.56 6.56 0 0 0 15.598 9.56c0 .52.044 1.02.152 1.496A18.554 18.554 0 0 1 2.255 4.228l-.027-.034a6.496 6.496 0 0 0-.895 3.311 6.562 6.562 0 0 0 2.888 5.442l.023.015a6.465 6.465 0 0 1-2.997-.823l.033.017v.072a6.592 6.592 0 0 0 5.213 6.438l.043.008a6.408 6.408 0 0 1-1.669.216h-.054.003a5.842 5.842 0 0 1-1.279-.118l.037.006c.873 2.624 3.273 4.496 6.121 4.57h.009a13.098 13.098 0 0 1-8.12 2.798h-.015.001c-.538 0-1.054-.024-1.57-.09C2.826 27.902 6.287 29 10.004 29h.063-.003c12.072 0 18.672-10 18.672-18.668 0-.29-.01-.57-.024-.848a13.186 13.186 0 0 0 3.258-3.359l.03-.047z" style="fill:var(--color4, #f4f4fd)"/></symbol><symbol id="icon-twitter-footer" viewBox="0 0 32 32"><path fill="#f4f4fd" d="M32 6.079a13.692 13.692 0 0 1-3.78 1.035 6.562 6.562 0 0 0 2.874-3.579l.013-.046a12.858 12.858 0 0 1-4.076 1.574l-.084.014a6.559 6.559 0 0 0-11.348 4.481v.006c0 .52.044 1.019.152 1.495-5.455-.265-10.28-2.88-13.523-6.861a6.57 6.57 0 0 0 2.016 8.768 6.454 6.454 0 0 1-2.997-.825l.033.017v.072a6.594 6.594 0 0 0 5.213 6.439l.043.008a6.584 6.584 0 0 1-1.72.216l-.104.001c-.403 0-.797-.041-1.176-.119l.037.006c.851 2.597 3.263 4.507 6.131 4.569a13.098 13.098 0 0 1-8.121 2.799H1.57h.001c-.539 0-1.055-.024-1.571-.091 2.826 1.846 6.287 2.944 10.004 2.944h.063-.003c12.072 0 18.672-10 18.672-18.668 0-.289-.011-.569-.024-.848a13.198 13.198 0 0 0 3.258-3.358l.03-.047z" style="fill:var(--color4, #f4f4fd)"/></symbol></defs></svg>